<?xml version="1.0" standalone="no"?>
<!DOCTYPE svg PUBLIC "-//W3C//DTD SVG 20010904//EN"
 "http://www.w3.org/TR/2001/REC-SVG-20010904/DTD/svg10.dtd">
<svg version="1.0" xmlns="http://www.w3.org/2000/svg"
 width="30.000000pt" height="30.000000pt" viewBox="0 0 30.000000 30.000000"
 preserveAspectRatio="xMidYMid meet">

<g transform="translate(0.000000,30.000000) scale(0.100000,-0.100000)"
fill="#000000" stroke="none">
<path d="M40 225 c0 -19 5 -35 10 -35 6 0 10 8 10 17 0 14 4 12 25 -7 32 -31
46 -17 15 15 -19 21 -21 25 -7 25 9 0 17 5 17 10 0 6 -16 10 -35 10 -33 0 -35
-2 -35 -35z"/>
<path d="M190 250 c0 -5 8 -10 17 -10 14 0 12 -4 -7 -25 -31 -32 -17 -46 15
-15 21 19 25 21 25 7 0 -9 5 -17 10 -17 6 0 10 16 10 35 0 33 -2 35 -35 35
-19 0 -35 -4 -35 -10z"/>
<path d="M82 98 c-19 -19 -22 -20 -22 -5 0 9 -4 17 -10 17 -5 0 -10 -16 -10
-35 0 -33 2 -35 35 -35 19 0 35 5 35 10 0 6 -8 10 -17 10 -14 0 -13 3 5 23 38
40 23 53 -16 15z"/>
<path d="M180 113 c0 -4 10 -17 22 -30 18 -20 19 -23 5 -23 -9 0 -17 -4 -17
-10 0 -5 16 -10 35 -10 33 0 35 2 35 35 0 19 -4 35 -10 35 -5 0 -10 -8 -10
-17 0 -14 -3 -13 -23 5 -24 22 -37 28 -37 15z"/>
</g>
</svg>
