<?xml version="1.0" encoding="utf-8"?>
<!-- Generator: Adobe Adobe Illustrator 24.2.0, SVG Export Plug-In . SVG Version: 6.00 Build 0)  -->
<svg version="1.1" id="Layer_2" xmlns="http://www.w3.org/2000/svg" xmlns:xlink="http://www.w3.org/1999/xlink" x="0px" y="0px"
	 width="612px" height="792px" viewBox="0 0 612 792" style="enable-background:new 0 0 612 792;" xml:space="preserve">
<style type="text/css">
	.st0{fill:#21243A;}
	.st1{fill:#202A37;}
	.st2{fill:#FFFFFF;}
</style>
<rect class="st1" width="612" height="792"/>
<path class="st2" d="M456.05,365.76c-52.62,0-224.79,4.52-224.79,4.52s-20.18,54.68-30.63,64.87
	c-10.98,10.7-49.72,11.89-49.72,11.89l35.01-75.02c-0.12-0.38-89.99,2.41-89.11,1.26c0,0,8.61-11.58,12.86-13.5
	c5.65-2.56,16.22-7.85,23.86-7.85c115.77,0,247.38-6.94,329.86-6.94c47.38,0,52.41,15.52,51.73,29.58
	c-9.48,49.94-119.78,29.02-189.75,34.83l-9.92,33.67l-48.07,1.66l18.51-54.77l174.26-3.97c0,0,4.82-1.36,7.39-4.47
	C472.44,375.56,471.22,364.21,456.05,365.76z"/>
</svg>
